# xmcd CD database file
#
# Track frame offsets:
#	150
#	17618
#	39285
#	55193
#	72125
#	86860
#	105165
#	137535
#
# Disc length: 2086 seconds
#
# Revision: 0
# Processed by: cddbd v1.4PL0 Copyright (c) Steve Scherf et al.
# Submitted via: Feurio! 1.63 - http://www.feurio.com
#
DISCID=59082408
DTITLE=Toler Brothers - The Toler Brothers
DYEAR=1994
DGENRE=blues
TTITLE0=I've Been Down So Long
TTITLE1=You're Gonna Need Me
TTITLE2=Long Legged Woman
TTITLE3=I've Got News
TTITLE4=No More Blues
TTITLE5=Little Girl
TTITLE6=Goin' Down Slow
TTITLE7=Murdered By Love
EXTD=YEAR:1994, Icehouse Records
EXTT0=
EXTT1=
EXTT2=
EXTT3=
EXTT4=
EXTT5=
EXTT6=
EXTT7=
PLAYORDER=
